<svg width="40" height="40" viewBox="0 0 40 40" fill="none" xmlns="http://www.w3.org/2000/svg">
<path d="M7.10223 32.1889C8.99111 30.8289 10.9956 29.7541 13.1156 28.9644C15.2341 28.1733 17.5289 27.7778 20 27.7778C22.4711 27.7778 24.7659 28.1733 26.8844 28.9644C29.003 29.7556 31.0074 30.8296 32.8978 32.1867C34.3644 30.6681 35.5444 28.8756 36.4378 26.8089C37.3311 24.7393 37.7778 22.4696 37.7778 20C37.7778 15.0741 36.0467 10.8793 32.5844 7.41556C29.1222 3.95185 24.9274 2.22074 20 2.22222C15.0726 2.2237 10.8778 3.95556 7.41556 7.41778C3.95334 10.88 2.22223 15.0741 2.22223 20C2.22223 22.4696 2.66889 24.7393 3.56223 26.8089C4.45556 28.877 5.63556 30.6696 7.10223 32.1867M20 21.1111C18.1289 21.1111 16.5496 20.4681 15.2622 19.1822C13.9748 17.8963 13.3319 16.317 13.3333 14.4444C13.3348 12.5719 13.9778 10.9926 15.2622 9.70667C16.5467 8.42074 18.1259 7.77778 20 7.77778C21.8741 7.77778 23.4533 8.42074 24.7378 9.70667C26.0222 10.9926 26.6652 12.5719 26.6667 14.4444C26.6681 16.317 26.0252 17.8963 24.7378 19.1822C23.4504 20.4681 21.8711 21.1111 20 21.1111ZM20 40C17.2104 40 14.5993 39.4807 12.1667 38.4422C9.73408 37.4037 7.61704 35.9844 5.81556 34.1844C4.01408 32.3844 2.59482 30.2674 1.55778 27.8333C0.520744 25.3993 0.00148464 22.7881 3.16106e-06 20C-0.00147832 17.2119 0.517781 14.6007 1.55778 12.1667C2.59778 9.73259 4.01704 7.61556 5.81556 5.81556C7.61704 4.01556 9.73408 2.5963 12.1667 1.55778C14.5993 0.519259 17.2104 0 20 0C22.7896 0 25.4007 0.519259 27.8333 1.55778C30.2659 2.5963 32.383 4.01556 34.1844 5.81556C35.9859 7.61556 37.4052 9.73259 38.4422 12.1667C39.4793 14.6007 39.9985 17.2119 40 20C40.0015 22.7881 39.4822 25.3993 38.4422 27.8333C37.4022 30.2674 35.983 32.3844 34.1844 34.1844C32.383 35.9844 30.2659 37.4037 27.8333 38.4422C25.4007 39.4807 22.7896 40 20 40Z" fill="#F2F4F6"/>
</svg>
