<svg width="377" height="72" viewBox="0 0 377 72" fill="none" xmlns="http://www.w3.org/2000/svg">
<g filter="url(#filter0_d_4048_1376)">
<path d="M39.4 31.8V27.3H67.45V31.8H39.4ZM36.55 63.3C30.45 63.3 24.95 61.9 20.05 59.1C15.15 56.3 11.25 52.5 8.35 47.7C5.45 42.9 4 37.55 4 31.65C4 25.65 5.45 20.3 8.35 15.6C11.25 10.8 15.15 7.00005 20.05 4.20005C24.95 1.40005 30.45 4.42863e-05 36.55 4.42863e-05C42.25 4.42863e-05 47.45 1.25004 52.15 3.75005C56.85 6.15005 60.6 9.40005 63.4 13.5L59.8 16.05C57.3 12.55 54.05 9.75005 50.05 7.65004C46.05 5.55004 41.55 4.50004 36.55 4.50004C31.25 4.50004 26.45 5.70005 22.15 8.10005C17.95 10.5 14.6 13.75 12.1 17.85C9.7 21.85 8.5 26.45 8.5 31.65C8.5 36.75 9.7 41.35 12.1 45.45C14.6 49.55 17.95 52.8 22.15 55.2C26.45 57.6 31.25 58.8 36.55 58.8C42.65 58.8 48.05 57.25 52.75 54.15C57.45 50.95 60.8 46.8 62.8 41.7H39.4V37.2H67.45V41.7C65.35 48.1 61.5 53.3 55.9 57.3C50.4 61.3 43.95 63.3 36.55 63.3ZM36.55 53.4C32.25 53.4 28.4 52.45 25 50.55C21.6 48.65 18.9 46.05 16.9 42.75C14.9 39.45 13.9 35.75 13.9 31.65C13.9 27.55 14.9 23.85 16.9 20.55C18.9 17.25 21.6 14.65 25 12.75C28.4 10.85 32.25 9.90005 36.55 9.90005C40.55 9.90005 44.15 10.75 47.35 12.45C50.65 14.05 53.3 16.25 55.3 19.05L51.55 21.6C48.05 16.8 43.05 14.4 36.55 14.4C31.35 14.4 27 16.05 23.5 19.35C20.1 22.55 18.4 26.65 18.4 31.65C18.4 36.55 20.1 40.65 23.5 43.95C27 47.25 31.35 48.9 36.55 48.9C43.05 48.9 48.05 46.5 51.55 41.7H56.8C54.9 45.2 52.15 48.05 48.55 50.25C45.05 52.35 41.05 53.4 36.55 53.4ZM155.11 31.65C155.11 26.45 153.86 21.85 151.36 17.85C148.96 13.75 145.61 10.5 141.31 8.10005C137.11 5.70005 132.36 4.50004 127.06 4.50004C121.76 4.50004 116.96 5.70005 112.66 8.10005C108.46 10.5 105.11 13.75 102.61 17.85C100.21 21.85 99.0098 26.45 99.0098 31.65C99.0098 36.75 100.21 41.35 102.61 45.45C105.11 49.55 108.46 52.8 112.66 55.2C116.96 57.6 121.76 58.8 127.06 58.8C132.36 58.8 137.11 57.6 141.31 55.2C145.61 52.8 148.96 49.55 151.36 45.45C153.86 41.35 155.11 36.75 155.11 31.65ZM145.21 31.65C145.21 26.65 143.46 22.55 139.96 19.35C136.56 16.05 132.26 14.4 127.06 14.4C121.86 14.4 117.51 16.05 114.01 19.35C110.61 22.55 108.91 26.65 108.91 31.65C108.91 36.55 110.61 40.65 114.01 43.95C117.51 47.25 121.86 48.9 127.06 48.9C132.26 48.9 136.56 47.25 139.96 43.95C143.46 40.65 145.21 36.55 145.21 31.65ZM127.06 53.4C122.76 53.4 118.91 52.45 115.51 50.55C112.11 48.65 109.41 46.05 107.41 42.75C105.41 39.45 104.41 35.75 104.41 31.65C104.41 27.55 105.41 23.85 107.41 20.55C109.41 17.25 112.11 14.65 115.51 12.75C118.91 10.85 122.76 9.90005 127.06 9.90005C131.36 9.90005 135.21 10.85 138.61 12.75C142.01 14.65 144.71 17.25 146.71 20.55C148.71 23.85 149.71 27.55 149.71 31.65C149.71 35.75 148.71 39.45 146.71 42.75C144.71 46.05 142.01 48.65 138.61 50.55C135.21 52.45 131.36 53.4 127.06 53.4ZM127.06 63.3C120.96 63.3 115.46 61.9 110.56 59.1C105.66 56.3 101.76 52.5 98.8598 47.7C95.9598 42.9 94.5098 37.55 94.5098 31.65C94.5098 25.65 95.9598 20.3 98.8598 15.6C101.76 10.8 105.66 7.00005 110.56 4.20005C115.46 1.40005 120.96 4.42863e-05 127.06 4.42863e-05C133.16 4.42863e-05 138.66 1.40005 143.56 4.20005C148.46 7.00005 152.36 10.8 155.26 15.6C158.16 20.3 159.61 25.65 159.61 31.65C159.61 37.55 158.16 42.9 155.26 47.7C152.36 52.5 148.46 56.3 143.56 59.1C138.66 61.9 133.16 63.3 127.06 63.3ZM247.231 31.65C247.231 26.45 245.981 21.85 243.481 17.85C241.081 13.75 237.731 10.5 233.431 8.10005C229.231 5.70005 224.481 4.50004 219.181 4.50004C213.881 4.50004 209.081 5.70005 204.781 8.10005C200.581 10.5 197.231 13.75 194.731 17.85C192.331 21.85 191.131 26.45 191.131 31.65C191.131 36.75 192.331 41.35 194.731 45.45C197.231 49.55 200.581 52.8 204.781 55.2C209.081 57.6 213.881 58.8 219.181 58.8C224.481 58.8 229.231 57.6 233.431 55.2C237.731 52.8 241.081 49.55 243.481 45.45C245.981 41.35 247.231 36.75 247.231 31.65ZM237.331 31.65C237.331 26.65 235.581 22.55 232.081 19.35C228.681 16.05 224.381 14.4 219.181 14.4C213.981 14.4 209.631 16.05 206.131 19.35C202.731 22.55 201.031 26.65 201.031 31.65C201.031 36.55 202.731 40.65 206.131 43.95C209.631 47.25 213.981 48.9 219.181 48.9C224.381 48.9 228.681 47.25 232.081 43.95C235.581 40.65 237.331 36.55 237.331 31.65ZM219.181 53.4C214.881 53.4 211.031 52.45 207.631 50.55C204.231 48.65 201.531 46.05 199.531 42.75C197.531 39.45 196.531 35.75 196.531 31.65C196.531 27.55 197.531 23.85 199.531 20.55C201.531 17.25 204.231 14.65 207.631 12.75C211.031 10.85 214.881 9.90005 219.181 9.90005C223.481 9.90005 227.331 10.85 230.731 12.75C234.131 14.65 236.831 17.25 238.831 20.55C240.831 23.85 241.831 27.55 241.831 31.65C241.831 35.75 240.831 39.45 238.831 42.75C236.831 46.05 234.131 48.65 230.731 50.55C227.331 52.45 223.481 53.4 219.181 53.4ZM219.181 63.3C213.081 63.3 207.581 61.9 202.681 59.1C197.781 56.3 193.881 52.5 190.981 47.7C188.081 42.9 186.631 37.55 186.631 31.65C186.631 25.65 188.081 20.3 190.981 15.6C193.881 10.8 197.781 7.00005 202.681 4.20005C207.581 1.40005 213.081 4.42863e-05 219.181 4.42863e-05C225.281 4.42863e-05 230.781 1.40005 235.681 4.20005C240.581 7.00005 244.481 10.8 247.381 15.6C250.281 20.3 251.731 25.65 251.731 31.65C251.731 37.55 250.281 42.9 247.381 47.7C244.481 52.5 240.581 56.3 235.681 59.1C230.781 61.9 225.281 63.3 219.181 63.3ZM278.787 6.00005V1.50005H328.137V6.00005H278.787ZM278.787 51.9V47.4L308.487 15.9H314.637L284.937 47.4H292.287L321.987 15.9H278.787V11.4H328.137V15.9L298.437 47.4H328.137V51.9H278.787ZM278.787 61.8V57.3H328.137V61.8H278.787ZM368.064 61.8V1.50005H372.564V61.8H368.064ZM358.164 61.8V1.50005H362.664V61.8H358.164Z" fill="#F2F4F6"/>
</g>
<defs>
<filter id="filter0_d_4048_1376" x="0" y="0" width="376.564" height="71.3" filterUnits="userSpaceOnUse" color-interpolation-filters="sRGB">
<feFlood flood-opacity="0" result="BackgroundImageFix"/>
<feColorMatrix in="SourceAlpha" type="matrix" values="0 0 0 0 0 0 0 0 0 0 0 0 0 0 0 0 0 0 127 0" result="hardAlpha"/>
<feOffset dy="4"/>
<feGaussianBlur stdDeviation="2"/>
<feComposite in2="hardAlpha" operator="out"/>
<feColorMatrix type="matrix" values="0 0 0 0 0 0 0 0 0 0 0 0 0 0 0 0 0 0 0.25 0"/>
<feBlend mode="normal" in2="BackgroundImageFix" result="effect1_dropShadow_4048_1376"/>
<feBlend mode="normal" in="SourceGraphic" in2="effect1_dropShadow_4048_1376" result="shape"/>
</filter>
</defs>
</svg>
